<?xml version="1.0" encoding="UTF-8"?>
<svg enable-background="new 0 0 1256 1256" version="1.1" viewBox="0 0 1256 1256" xmlns="http://www.w3.org/2000/svg">
 <defs>
  <style type="text/css">.st0{fill:#010101;}</style>
 </defs>
 <ellipse cx="743.21" cy="860.47" rx="189.81" ry="175.13" fill="#010101" stroke="#000"/>
 <g transform="matrix(1.3336 0 0 1.3336 -245.73 -230.23)" style="">
  <path d="m711.49 694.71c-9.582 2.377-16.91 9.902-18.847 19.341l-10.921 53.394-51.345 21.512c-18.159 7.621-21.043 31.533-5.183 43.041 0.886 0.641 1.815 1.229 2.781 1.755l48.749 26.616 5.128 54.201c1.811 19.179 24.259 29.257 40.412 18.138 0.909-0.627 1.778-1.308 2.596-2.049l41.071-36.937 54.516 11.995c19.293 4.24 36.062-13.449 30.184-31.839-0.331-1.036-0.73-2.053-1.199-3.038l-23.388-49.441 28.575-46.788c10.096-16.566-2.006-37.556-21.781-37.789-1.106-0.015-2.205 0.042-3.302 0.168l-55.533 6.375-36.851-40.923c-6.381-7.077-16.3-10.063-25.667-7.728l5e-3 -4e-3z" fill="#0088d1" style=""/>
  <path d="m716.58 693.96c-1.722 0.082-3.427 0.334-5.095 0.747-9.571 2.382-16.888 9.902-18.827 19.337l-10.93 53.407-51.336 21.512c-18.164 7.616-21.048 31.529-5.192 43.037 0.886 0.644 1.815 1.231 2.781 1.759l48.753 26.596 5.128 54.212c1.819 19.179 24.279 29.242 40.421 18.119 0.907-0.622 1.765-1.3 2.578-2.034l41.086-36.937 54.506 12.005c19.293 4.229 36.058-13.459 30.173-31.85-0.329-1.036-0.729-2.048-1.193-3.033l-23.374-49.436 28.572-46.789c10.11-16.556-1.976-37.556-21.748-37.808-1.121-0.012-2.235 0.043-3.345 0.173l-55.524 6.381-36.86-40.927c-5.174-5.732-12.749-8.851-20.574-8.471zm1.223 25.941 0.036 0.033s-0.041 0.051-0.036 0.051c0.077 4e-3 0.147 0.079 0-0.084zm0.218 0.238 36.618 40.672c5.647 6.27 13.974 9.418 22.356 8.457l54.14-6.233-27.335 44.768c-4.584 7.501-5.08 16.804-1.324 24.748l22.464 47.449-53.398-11.744c-8.21-1.811-16.792 0.454-23.048 6.078l-40.773 36.688-5.03-53.109c-0.814-8.624-5.857-16.277-13.459-20.433l-46.547-25.417 49.114-20.574c7.951-3.325 13.742-10.365 15.48-18.808l10.742-52.542z" fill="#e4e4e4" style=""/>
  <path d="m716.58 693.96c-1.722 0.082-3.427 0.334-5.095 0.747-9.571 2.382-16.888 9.902-18.827 19.337l-10.93 53.407-51.336 21.512c-10.909 4.584-17.16 15.859-15.126 27.255 1.524-8.265 7.203-15.241 15.126-18.566l51.336-21.512 10.93-53.407c1.939-9.431 9.256-16.949 18.827-19.337 9.368-2.33 19.283 0.655 25.669 7.728l36.86 40.928 55.524-6.381c13.5-1.543 25.895 7.425 28.281 20.457 2.955-16.481-11.22-31.087-28.281-29.151l-55.524 6.381-36.86-40.927c-5.174-5.732-12.749-8.851-20.574-8.471zm111.78 132.34-2.304 3.79 23.374 49.439c0.92 1.957 1.58 4.022 1.954 6.145 0.915-5.024 0.234-10.204-1.954-14.838l-21.07-44.536z" fill="#fff" opacity=".2" style=""/>
  <path d="m857.81 766.14c-0.523 2.99-1.605 5.865-3.188 8.483l-28.572 46.786 2.309 4.903 26.263-42.999c3.147-5.168 4.281-11.267 3.188-17.178v5e-3zm-242.55 50.094c-1.927 10.491 3.176 21.014 12.715 26.231l48.758 26.6 5.127 54.205c1.811 19.18 24.266 29.254 40.413 18.131 0.906-0.622 1.769-1.305 2.587-2.038l41.081-36.939 54.513 11.999c17.883 3.916 34.099-11.155 30.927-28.736-2.553 14.048-16.633 23.178-30.927 20.047l-54.513-12.005-41.081 36.944c-14.541 13.055-38.137 5.89-42.48-12.9-0.245-1.06-0.417-2.127-0.52-3.204l-5.127-54.216-48.754-26.597c-6.728-3.687-11.401-10.127-12.714-17.536l-5e-3 0.014z" opacity=".2" style=""/>
 </g>
 <path class="st0" d="m1165 764.1c-8.3-36.4-68.5-141.3-191.6-234.4-22.5-17.1-42.8-31.3-59.7-42.6 24.6-105.3-103.3-232.3-228.1-172.5-89.6-84.3-189.5-118.7-281.4-117.3-243.3 3.4-431 256.9-229.1 498.8l0.4 0.4c3.1 3.7 6.3 7.4 9.5 11.1 13.1 15.7 21.8 29.6 29.2 54.1l60.2 197.3h-21.3c-19.6 0-35.6 15.9-35.6 35.6h80.8l135.8 64.2c8.4-17.8 0.8-39-16.9-47.3l-35.6-16.8h102.4c0-19.6-15.9-35.6-35.6-35.6h-92.8c-16.2 0-30.6-10.6-35.3-26.1l-47.7-156.7c-11.9-41.2 15.4-68.1 41.1-71.3 23.4-2.9 35.2 12.2 46.2 48.8l42.4 139h-21.3c-19.6 0-35.6 15.9-35.6 35.6h80.8l135.8 64.2c8.4-17.8 0.8-39-16.9-47.3l-35.6-16.8 65.332 2.197c-8.846-5.443-91.132-37.797-91.132-37.797-16.2 0-30.6-10.6-35.3-26.1l-70.4-231.4 12-6.4c167.1-70.1 345.8 55.1 470.2-65.2l0.8-0.8c15.4-14 30.8-28.3 76.3 0.2 49 30.7 157.1 110.8 206.1 247.8 0.1 0 29.8-10.6 21.6-46.9zm-343.8-303.5c-0.4-18.7-15.6-33.7-34.5-33.7-19 0-34.5 15.4-34.5 34.5 0 10.4 4.6 19.6 11.8 25.9-25-4.8-43.8-26.6-43.8-52.9 0-29.8 24.1-53.9 53.9-53.9s53.9 24.1 53.9 53.9c0 9.5-2.5 18.4-6.8 26.2z"/>
</svg>
